<?xml version="1.0" encoding="UTF-8"?>
<svg version="1.1" xmlns="http://www.w3.org/2000/svg" width="3346" height="2347">
<path d="M0 0 C5.81232762 0.08114048 11.62469286 0.15923476 17.43706894 0.23681641 C90.7875001 1.21774172 164.13223957 2.50999575 1226.62554932 108.06298828 C1228.7887566 109.18478935 1230.96250101 110.2845888 1233.13677979 111.38476562 C1262.73767151 126.4973287 1289.70189393 146.17884955 1314.60943604 168.09179688 C1315.99968994 169.31189453 1315.99968994 169.31189453 1317.41802979 170.55664062 C1324.24962686 176.69054268 1330.77815981 183.12866389 1337.29693604 189.59179688 C1338.17615723 190.45796631 1339.05537842 191.32413574 1339.96124268 192.21655273 C1345.18835854 197.43679017 1349.99303395 202.83918377 1354.61065674 208.60498047 C1356.67623585 211.17490704 1358.82064911 213.65193584 1361.00567627 216.11962891 C1379.07643028 236.60524833 1393.4309411 260.2634337 1406.60943604 284.09179688 C1407.01114014 284.80867676 1407.41284424 285.52555664 1407.82672119 286.26416016 C1453.76648205 368.45463985 1464.65289907 470.40219272 1497.73443604 905.71679688 C1497.79235321 907.60828964 1497.79235321 907.60828964 1497.85144043 909.53799438 C1498.0601408 916.44631774 1498.25244199 923.35490904 1498.43106967 930.26407319 C1498.52908404 934.04592884 1498.62932161 937.82769238 1498.73509216 941.60933971 C1499.71489988 976.96548595 1499.77381757 1012.3157996 1499.77669311 1047.68214011 C1499.7771966 1052.6080946 1499.77950951 1057.53404727 1499.78219032 1062.46000099 C1499.79095146 1078.90759909 1499.79561744 1095.35519081 1499.79485985 1111.80279126 C1499.79481989 1112.68006009 1499.79477994 1113.55732891 1499.79473877 1114.46118164 C1499.79469789 1115.33959525 1499.79465701 1116.21800886 1499.79461489 1117.12304107 C1499.79421075 1131.27318614 1499.80373365 1145.42330432 1499.81787714 1159.57344165 C1499.83248067 1174.30723362 1499.83913437 1189.0410127 1499.83828336 1203.77481204 C1499.83795923 1211.96405457 1499.8404027 1220.15326873 1499.85146141 1228.3425045 C1499.89584366 1262.90601934 1499.6253761 1297.43747592 1498.68096924 1331.98950195 C1498.66005092 1332.75805649 1498.6391326 1333.52661102 1498.6175804 1334.31845509 C1496.64471614 1406.38265221 1492.83199001 1478.4027622 1438.7769165 1945.11572266 C1437.91653373 1950.2356628 1437.07707668 1955.35842728 1436.2558136 1960.48477173 C1430.30422815 1997.59002969 1417.50098901 2031.59390323 1400.60943604 2065.09179688 C1400.18307861 2065.94563965 1399.75672119 2066.79948242 1399.31744385 2067.67919922 C1376.60060988 2112.97775514 1343.34999132 2156.23761572 1304.60943604 2189.09179688 C1303.17470947 2190.36023437 1303.17470947 2190.36023437 1301.71099854 2191.65429688 C1279.300433 2211.38797013 1254.32935878 2228.40419602 1228.14215088 2242.70800781 C1226.47690662 2243.61784052 1224.81562247 2244.53496596 1223.15875244 2245.45996094 C1143.6616324 2289.78968392 1049.23999935 2298.08160858 207.73443604 2343.77929688 C206.970861 2343.79476216 206.20728596 2343.81022745 205.42057228 2343.82616138 C195.10166997 2344.03509153 184.78268556 2344.23942115 174.46359873 2344.4390285 C172.53908915 2344.47639278 170.61458934 2344.51425948 168.69009018 2344.55215645 C161.31731997 2344.69655444 153.94443542 2344.82998362 146.57130134 2344.95410174 C141.80279267 2345.03491466 137.03442885 2345.1211023 132.26611328 2345.21264267 C79.75956974 2346.21348577 27.2563377 2346.27222601 -25.2583704 2346.29198551 C-32.70092141 2346.29480616 -40.14347123 2346.29905245 -47.58602142 2346.30348969 C-68.4835819 2346.31565668 -89.38114167 2346.32598734 -110.2787056 2346.32936478 C-111.61694906 2346.32958636 -112.95519252 2346.32980814 -114.29343598 2346.33003013 C-115.63367306 2346.33025072 -116.97391015 2346.3304712 -118.31414723 2346.33069158 C-120.99977573 2346.33113394 -123.68540422 2346.33158111 -126.37103271 2346.33203125 C-127.03685439 2346.33214064 -127.70267607 2346.33225003 -128.38867417 2346.33236274 C-149.06444904 2346.33584016 -169.74019017 2346.35045918 -190.41595459 2346.37304688 C-397.03664485 2346.59493545 -397.03664485 2346.59493545 -490.22650146 2344.69726562 C-491.00957361 2344.68132909 -491.79264576 2344.66539256 -492.59944737 2344.64897311 C-512.64465493 2344.23924896 -532.68816528 2343.76744034 -552.7311181 2343.25998866 C-558.21421535 2343.12118927 -563.69736021 2342.98438025 -569.18052673 2342.84834671 C-579.32854792 2342.5964641 -589.47652081 2342.34269359 -599.62445068 2342.0871582 C-600.41042396 2342.06736907 -601.19639724 2342.04757995 -602.00618789 2342.02719115 C-699.30298423 2339.5746423 -796.57812017 2336.35261434 -1401.39056396 2288.09179688 C-1402.22317749 2287.95084595 -1403.05579102 2287.80989502 -1403.91363525 2287.66467285 C-1488.29524011 2273.3148405 -1568.04461688 2246.68282974 -1635.39056396 2192.09179688 C-1636.79822021 2190.97417969 -1636.79822021 2190.97417969 -1638.23431396 2189.83398438 C-1644.49197818 2184.81706393 -1650.39391232 2179.48599767 -1656.24993896 2174.01367188 C-1659.03157585 2171.41499283 -1661.85881368 2168.87195817 -1664.70306396 2166.34179688 C-1671.03285574 2160.65727513 -1676.95136134 2154.72344699 -1682.49212646 2148.26757812 C-1684.65801402 2145.7852749 -1686.89933354 2143.38124543 -1689.14056396 2140.96679688 C-1694.92018424 2134.61269627 -1700.20246977 2127.93380262 -1705.39056396 2121.09179688 C-1705.94292725 2120.36395996 -1706.49529053 2119.63612305 -1707.06439209 2118.88623047 C-1720.27550563 2101.39811118 -1731.79471056 2083.27212326 -1742.39056396 2064.09179688 C-1742.85462646 2063.25696777 -1743.31868896 2062.42213867 -1743.79681396 2061.56201172 C-1764.90477981 2023.34130225 -1777.5919076 1983.73106804 -1784.33050537 1940.77978516 C-1785.47064685 1933.53019102 -1786.6874396 1926.29402245 -1787.90228271 1919.05664062 C-1801.45111846 1838.00396047 -1812.44870086 1756.52124283 -1844.57806396 1342.59179688 C-1844.61508423 1341.48365631 -1844.65210449 1340.37551575 -1844.69024658 1339.23379517 C-1844.93935702 1331.60288015 -1845.14774916 1323.9712952 -1845.33507156 1316.33862305 C-1845.37375521 1314.77236488 -1845.41307815 1313.20612242 -1845.4528923 1311.63989258 C-1846.39605402 1274.53431919 -1846.59320516 1237.43550667 -1846.57878828 1200.32032108 C-1846.57805673 1198.06952212 -1846.57781172 1195.81872357 -1846.57770157 1193.5679245 C-1846.57388096 1142.24486779 -1846.09270598 1090.96064573 -1844.47141266 1039.65990448 C-1844.38960724 1037.06140726 -1844.30919127 1034.46287022 -1844.22912598 1031.86431885 C-1841.65725577 948.59893907 -1837.61375894 865.37409286 -1681.39056396 195.09179688 C-1680.62357178 194.22554687 -1679.85657959 193.35929688 -1679.06634521 192.46679688 C-1676.85790249 189.99270664 -1674.6257013 187.54177877 -1672.39056396 185.09179688 C-1671.5127124 184.10953125 -1670.63486084 183.12726563 -1669.73040771 182.11523438 C-1661.75892397 173.25620962 -1653.22764008 165.08229967 -1644.39056396 157.09179688 C-1643.81080811 156.56730957 -1643.23105225 156.04282227 -1642.63372803 155.50244141 C-1622.77659135 137.69129692 -1600.53659666 122.31048068 -1577.39056396 109.09179688 C-1576.59730713 108.63836914 -1575.80405029 108.18494141 -1574.98675537 107.71777344 C-1492.87366228 61.1294466 -1398.35110682 50.14089427 -370.15735626 0.13916016 C-366.52656589 0.09350695 -362.89578849 0.04694813 -359.26501465 0 C-267.46010228 -1.18540976 -175.63610375 -1.30661766 0 0 Z M-505.39056396 676.09179688 C-505.39056396 1004.44179688 -505.39056396 1332.79179688 -505.39056396 1671.09179688 C-497.52057424 1667.15680201 -489.92853266 1663.19157382 -482.39056396 1658.71679688 C-480.28183553 1657.47611396 -478.17243263 1656.23657683 -476.06243896 1654.99804688 C-474.97124756 1654.35738281 -473.88005615 1653.71671875 -472.75579834 1653.05664062 C-467.07262429 1649.73843222 -461.35755193 1646.47628399 -455.64056396 1643.21679688 C-455.05742432 1642.88415833 -454.47428467 1642.55151978 -453.87347412 1642.20880127 C-450.90101432 1640.51324466 -447.92815122 1638.81839729 -444.95501709 1637.12402344 C-439.6794535 1634.11698825 -434.40785337 1631.1030175 -429.13598633 1628.08950806 C-426.22355766 1626.42471751 -423.31099171 1624.76016722 -420.39837646 1623.09570312 C-419.82126923 1622.76589951 -419.24416199 1622.43609589 -418.64956665 1622.09629822 C-415.13006017 1620.08518234 -411.60989585 1618.07522309 -408.0892334 1616.06613159 C-396.17480252 1609.2670173 -384.26867593 1602.45426514 -372.39056396 1595.59179688 C-363.44497422 1590.42356593 -354.48701552 1585.27748346 -345.51556396 1580.15429688 C-344.93518372 1579.82285675 -344.35480347 1579.49141663 -343.75683594 1579.14993286 C-339.04504986 1576.4594558 -334.33244715 1573.77041035 -329.61981201 1571.0814209 C-325.50134812 1568.7313803 -321.38320672 1566.38077598 -317.26556396 1564.02929688 C-316.39475189 1563.53201584 -316.39475189 1563.53201584 -315.50634766 1563.02468872 C-307.12178865 1558.23553144 -298.75142554 1553.42220658 -290.39056396 1548.59179688 C-281.44497422 1543.42356593 -272.48701552 1538.27748346 -263.51556396 1533.15429688 C-262.93518372 1532.82285675 -262.35480347 1532.49141663 -261.75683594 1532.14993286 C-257.04504986 1529.4594558 -252.33244715 1526.77041035 -247.61981201 1524.0814209 C-243.50134812 1521.7313803 -239.38320672 1519.38077598 -235.26556396 1517.02929688 C-234.39475189 1516.53201584 -234.39475189 1516.53201584 -233.50634766 1516.02468872 C-225.12178865 1511.23553144 -216.75142554 1506.42220658 -208.39056396 1501.59179688 C-195.92454174 1494.38966894 -183.42695152 1487.24350012 -170.92279053 1480.10791016 C-167.40875718 1478.10243873 -163.89561428 1476.09541157 -160.38275146 1474.08789062 C-159.51696976 1473.59312477 -159.51696976 1473.59312477 -158.63369751 1473.08836365 C-155.72232311 1471.42454329 -152.81105108 1469.76054393 -149.89984131 1468.09643555 C-144.61402569 1465.07518434 -139.32758276 1462.05505883 -134.03794861 1459.04049683 C-131.07173002 1457.35000613 -128.10601277 1455.65863752 -125.14056396 1453.96679688 C-124.55761566 1453.63423889 -123.97466736 1453.30168091 -123.37405396 1452.95904541 C-115.28810428 1448.3439164 -107.23483626 1443.67557875 -99.20306396 1438.96679688 C-90.11260815 1433.63816873 -80.94480868 1428.46266527 -71.7387085 1423.33691406 C-63.63738819 1418.81589122 -55.61544138 1414.17005683 -47.61224365 1409.47802734 C-39.98257587 1405.00900953 -32.32078911 1400.59818056 -24.64056396 1396.21679688 C-24.05624603 1395.88343323 -23.4719281 1395.55006958 -22.86990356 1395.206604 C-19.89864416 1393.51176197 -16.92693125 1391.81771703 -13.95501709 1390.12402344 C-8.6794535 1387.11698825 -3.40785337 1384.1030175 1.86401367 1381.08950806 C4.77644234 1379.42471751 7.68900829 1377.76016722 10.60162354 1376.09570312 C11.17873077 1375.76589951 11.75583801 1375.43609589 12.35043335 1375.09629822 C15.86993983 1373.08518234 19.39010415 1371.07522309 22.9107666 1369.06613159 C34.82519748 1362.2670173 46.73132407 1355.45426514 58.60943604 1348.59179688 C67.55502578 1343.42356593 76.51298448 1338.27748346 85.48443604 1333.15429688 C86.06481628 1332.82285675 86.64519653 1332.49141663 87.24316406 1332.14993286 C91.95495014 1329.4594558 96.66755285 1326.77041035 101.38018799 1324.0814209 C105.49865188 1321.7313803 109.61679328 1319.38077598 113.73443604 1317.02929688 C114.60524811 1316.53201584 114.60524811 1316.53201584 115.49365234 1316.02468872 C123.87821135 1311.23553144 132.24857446 1306.42220658 140.60943604 1301.59179688 C153.07545826 1294.38966894 165.57304848 1287.24350012 178.07720947 1280.10791016 C181.59124282 1278.10243873 185.10438572 1276.09541157 188.61724854 1274.08789062 C189.48303024 1273.59312477 189.48303024 1273.59312477 190.36630249 1273.08836365 C193.27767689 1271.42454329 196.18894892 1269.76054393 199.10015869 1268.09643555 C204.38597431 1265.07518434 209.67241724 1262.05505883 214.96205139 1259.04049683 C217.92826998 1257.35000613 220.89398723 1255.65863752 223.85943604 1253.96679688 C224.44238434 1253.63423889 225.02533264 1253.30168091 225.62594604 1252.95904541 C233.71189572 1248.3439164 241.76516374 1243.67557875 249.79693604 1238.96679688 C258.88739185 1233.63816873 268.05519132 1228.46266527 277.2612915 1223.33691406 C285.35974684 1218.81749005 293.37948307 1214.17432543 301.37896729 1209.48242188 C309.09127524 1204.96349143 316.84258624 1200.51596025 324.60943604 1196.09179688 C337.32770775 1188.8459263 349.98230914 1181.4955981 362.60943604 1174.09179688 C359.83206258 1171.1029442 357.17014613 1169.08128779 353.59381104 1167.13085938 C352.60252197 1166.58429688 351.61123291 1166.03773438 350.58990479 1165.47460938 C349.5238501 1164.89453125 348.45779541 1164.31445312 347.35943604 1163.71679688 C345.0823663 1162.46084648 342.80634962 1161.20298526 340.53131104 1159.94335938 C339.95199829 1159.62312805 339.37268555 1159.30289673 338.77581787 1158.97296143 C332.99901484 1155.77152721 327.30126204 1152.44121028 321.60943604 1149.09179688 C313.49576123 1144.32664392 305.33132227 1139.66766619 297.10943604 1135.09179688 C287.95220289 1129.99348763 278.87250434 1124.77871632 269.83111572 1119.47802734 C262.20144794 1115.00900953 254.53966118 1110.59818056 246.85943604 1106.21679688 C245.98295914 1105.7167514 245.98295914 1105.7167514 245.08877563 1105.206604 C242.11751623 1103.51176197 239.14580332 1101.81771703 236.17388916 1100.12402344 C229.73407618 1096.45337405 223.29981488 1092.77299777 216.86456299 1089.09436035 C215.11809748 1088.09604852 213.3715943 1087.09780267 211.62506104 1086.09960938 C211.0483667 1085.77001221 210.47167236 1085.44041504 209.87750244 1085.10083008 C206.33847981 1083.07860194 202.79814248 1081.05869578 199.25682068 1079.04049683 C196.29060209 1077.35000613 193.32488484 1075.65863752 190.35943604 1073.96679688 C189.77648773 1073.63423889 189.19353943 1073.30168091 188.59292603 1072.95904541 C180.50697635 1068.3439164 172.45370833 1063.67557875 164.42193604 1058.96679688 C156.36929418 1054.24651278 148.26467181 1049.63245023 140.10943604 1045.09179688 C130.95230056 1039.99330812 121.87250842 1034.77871871 112.83111572 1029.47802734 C105.20144794 1025.00900953 97.53966118 1020.59818056 89.85943604 1016.21679688 C88.98295914 1015.7167514 88.98295914 1015.7167514 88.08877563 1015.206604 C85.11751623 1013.51176197 82.14580332 1011.81771703 79.17388916 1010.12402344 C73.89832557 1007.11698825 68.62672544 1004.1030175 63.3548584 1001.08950806 C60.44242973 999.42471751 57.52986378 997.76016722 54.61724854 996.09570312 C54.0401413 995.76589951 53.46303406 995.43609589 52.86843872 995.09629822 C49.34893224 993.08518234 45.82876792 991.07522309 42.30810547 989.06613159 C29.31840248 981.65340025 16.34371559 974.21568599 3.39361572 966.73388672 C-8.00202297 960.15391331 -19.42945754 953.62988316 -30.8583374 947.10791016 C-34.37237075 945.10243873 -37.88551365 943.09541157 -41.39837646 941.08789062 C-41.97556427 940.75804672 -42.55275208 940.42820282 -43.14743042 940.08836365 C-46.05880482 938.42454329 -48.97007685 936.76054393 -51.88128662 935.09643555 C-57.16710224 932.07518434 -62.45354517 929.05505883 -67.74317932 926.04049683 C-70.70939791 924.35000613 -73.67511516 922.65863752 -76.64056396 920.96679688 C-77.22351227 920.63423889 -77.80646057 920.30168091 -78.40707397 919.95904541 C-86.49302365 915.3439164 -94.54629167 910.67557875 -102.57806396 905.96679688 C-110.63070582 901.24651278 -118.73532819 896.63245023 -126.89056396 892.09179688 C-136.04769944 886.99330812 -145.12749158 881.77871871 -154.16888428 876.47802734 C-161.79855206 872.00900953 -169.46033882 867.59818056 -177.14056396 863.21679688 C-178.01704086 862.7167514 -178.01704086 862.7167514 -178.91122437 862.206604 C-181.88248377 860.51176197 -184.85419668 858.81771703 -187.82611084 857.12402344 C-193.10167443 854.11698825 -198.37327456 851.1030175 -203.6451416 848.08950806 C-206.55757027 846.42471751 -209.47013622 844.76016722 -212.38275146 843.09570312 C-212.9598587 842.76589951 -213.53696594 842.43609589 -214.13156128 842.09629822 C-217.65106776 840.08518234 -221.17123208 838.07522309 -224.69189453 836.06613159 C-237.68159752 828.65340025 -250.65628441 821.21568599 -263.60638428 813.73388672 C-271.48113081 809.18691711 -279.36918254 804.66355997 -287.26556396 800.15429688 C-287.84594421 799.82285675 -288.42632446 799.49141663 -289.02429199 799.14993286 C-293.14593375 796.79643412 -297.26817947 794.44399434 -301.39056396 792.09179688 C-306.09931306 789.40502476 -310.80779314 786.71778283 -315.51556396 784.02929688 C-316.09610535 783.69777618 -316.67664673 783.36625549 -317.27478027 783.02468872 C-326.73434109 777.62150359 -336.17356942 772.18360742 -345.60638428 766.73388672 C-357.00202297 760.15391331 -368.42945754 753.62988316 -379.8583374 747.10791016 C-383.37237075 745.10243873 -386.88551365 743.09541157 -390.39837646 741.08789062 C-390.97556427 740.75804672 -391.55275208 740.42820282 -392.14743042 740.08836365 C-395.05880482 738.42454329 -397.97007685 736.76054393 -400.88128662 735.09643555 C-406.16710224 732.07518434 -411.45354517 729.05505883 -416.74317932 726.04049683 C-419.70939791 724.35000613 -422.67511516 722.65863752 -425.64056396 720.96679688 C-426.22351227 720.63423889 -426.80646057 720.30168091 -427.40707397 719.95904541 C-436.47527863 714.78328548 -445.4976372 709.53226945 -454.50457764 704.25073242 C-462.81337238 699.39416873 -471.20589437 694.69511065 -479.61810303 690.02050781 C-486.21677539 686.34335291 -492.74255612 682.57377483 -499.15447998 678.57885742 C-502.05441745 676.66668837 -502.05441745 676.66668837 -505.39056396 676.09179688 Z " fill="#008000" transform="translate(1846.3905639648438,0.908203125)"/>
</svg>
